<svg xmlns="http://www.w3.org/2000/svg" viewBox="0 0 92 92"><path fill="#fcfcfc" stroke="#fcfcfc" d="M37.613 1.054c-7.173 1.203-7.325 2.123-1.059 6.438C52.361 18.38 74.158 49.562 80.072 69.75c1.671 5.704 2.235 5.439 6.377-3C90.978 57.523 94.689 41 92.232 41c-.533 0-1.21-1.799-1.505-3.997C87.671 14.216 62.148-3.058 37.613 1.054M11.505 16.127C-1.697 30.739-2.537 59.236 9.798 74l2.089 2.5 1.183-3.333c4.131-11.633 14.063-28.709 22.583-38.825l4.345-5.159-5.249-4.75C28.953 19.187 18.381 12 16.461 12c-.675 0-2.906 1.857-4.956 4.127m31.178 29.732C34.971 56.335 25 78.117 25 84.488c0 6.309 24.01 9.366 36.231 4.612 3.152-1.226 5.981-2.634 6.287-3.129C69.883 82.144 51.806 40 47.799 40c-.442 0-2.744 2.637-5.116 5.859" fill-rule="evenodd"/><path fill="#f9f7f8" stroke="#f9f7f8" d="m34.197 2.132-3.302.952 5.802 4.285c16.838 12.433 37.577 41.797 43.372 61.409 1.624 5.495 2.71 5.028 6.651-2.859 12.048-24.109-.351-54.194-25.887-62.818C54.095.826 40.452.33 34.197 2.132M10.503 17.75C-1.314 32.759-2.3 56.38 8.268 71.244l3.354 4.718 3.187-7.795c3.878-9.483 11.781-22.922 18.048-30.69 7.323-9.076 7.169-8.169 2.143-12.655C29.913 20.283 17.698 12 16.09 12c-.584 0-3.098 2.588-5.587 5.75m32.462 28.149C35.138 56.585 25 78.916 25 85.47c0 2.411 12.098 5.688 21 5.688 7.681 0 20.155-2.981 21.486-5.135 1.823-2.951-11.692-36.041-17.715-43.372l-2.34-2.848-4.466 6.096" fill-rule="evenodd"/><path fill="#3b5bab" stroke="#3b5bab" d="m34.721 2.209-3.778 1.003 4.68 2.968c14.852 9.419 36.218 38.762 43.921 60.32 2.648 7.412 2.917 7.37 7.103-1.101 7.93-16.045 4.639-37.428-7.736-50.266-11.22-11.639-29.207-16.9-44.19-12.924M12.178 16.423C-.943 30.657-2.667 53.541 8.104 70.5l3.175 5 1.558-3.5c7.438-16.714 12.496-25.407 21.286-36.583l4.784-6.084-4.703-4.526c-4.429-4.262-11.016-9.099-15.847-11.637-1.89-.993-2.62-.609-6.179 3.253M44.23 44.538c-6.499 7.884-16.062 27.753-18.617 38.681-1.678 7.177 23.874 10.499 37.074 4.82l5.138-2.21-1.982-7.165C62.034 64.899 50.698 41 47.978 41c-.458 0-2.145 1.592-3.748 3.538" fill-rule="evenodd"/><path fill="#9c1a22" stroke="#9c1a22" d="M12.112 16.61C-1.423 31.987-2.464 57.092 9.784 72.792l1.788 2.292 3.256-7.963c3.916-9.577 11.781-22.74 18.851-31.546l5.179-6.452-4.179-3.834c-4.831-4.434-9.652-8.058-14.827-11.148l-3.649-2.179-4.091 4.648M42.53 47.406c-6.092 8.537-12.949 22.524-15.428 31.468l-2.013 7.265 3.441 1.438c9.652 4.033 23.405 4.325 32.97.701 6.024-2.282 6.231-4.08 1.943-16.853C59.829 60.66 49.749 41 47.843 41c-.408 0-2.799 2.883-5.313 6.406" fill-rule="evenodd"/></svg>