<svg xmlns="http://www.w3.org/2000/svg" viewBox="0 0 225 225"><path fill="#fbfbfb" stroke="#fbfbfb" d="m123.9 31.89 2.401 1.845-5.005-.481c-27.391-2.632-78.293 44.565-81.068 75.166l-.551 6.076-1.262-3.498-1.263-3.498-.109 4c-.06 2.2-.522 12.471-1.028 22.825-1.832 37.517 5.011 48.102 30.985 47.93 12.098-.08 111.38-7.215 112.093-8.056 1.38-1.627 9.808-116.695 8.893-121.418-2.006-10.357-9.063-18.538-18.374-21.304-8.349-2.479-48.996-2.112-45.712.413m8.44 6.864c14.827 16.941-22.012 68.951-60.61 85.57-10.374 4.467-22.103 4.602-26.59.308l-2.997-2.869 2.023 5.492 2.023 5.492 7.156-1.785c3.935-.982 12.53-3.034 19.099-4.56l11.945-2.775 22.034-19.874 22.034-19.874 5.753-19.69c3.164-10.829 5.761-20.005 5.771-20.391.011-.386-2.118-2.152-4.731-3.924-3.189-2.163-4.145-2.531-2.91-1.12" fill-rule="evenodd"/><path fill="#b11a0e" stroke="#b11a0e" d="M124.792 32.142c4.052 2.594 3.728 3.116-1.106 1.782-26.379-7.284-87.633 50.73-83.475 79.059.561 3.823-.826 2.904-1.879-1.244-.951-3.746-1.969 11.942-2.196 33.829-.261 25.118 6.216 34.572 24.752 36.126 5.51.462 116.748-6.38 117.924-7.253.891-.661 9.233-110.15 8.922-117.095-.969-21.616-10.456-27.357-45.166-27.329l-21.068.017 3.292 2.108m7.384 6.886c3.647 4.938 3.3 17.06-.757 26.472-16.149 37.462-70.727 74.346-86.569 58.503-1.568-1.567-2.85-2.607-2.85-2.31 0 .435 3.126 10.052 3.605 11.092.073.157 8.822-1.777 19.444-4.297 17.06-4.047 19.73-4.955 22.893-7.785 37.794-33.805 41.048-36.953 42.052-40.68.56-2.082 3.202-11.243 5.869-20.357l4.851-16.573-5.431-3.606-5.43-3.605 2.323 3.146" fill-rule="evenodd"/><path fill="#b21404" stroke="#b21404" d="M131.331 36.468c6.621 4.493 9.653 7.132 9.286 8.087-.299.779-3.016 9.937-6.038 20.351-5.474 18.861-5.514 18.953-10.287 23.348-17.136 15.782-37.195 33.629-39.304 34.973-2.345 1.493-38.778 10.405-39.383 9.633-.155-.198-1.802-4.86-3.66-10.36-1.857-5.5-3.663-10.361-4.013-10.802-1.24-1.564-2.112 43.546-.942 48.76 2.93 13.067 9.052 18.929 21.575 20.66 7.429 1.027 118.326-5.676 119.897-7.247.945-.945 9.692-113.585 9.205-118.546-1.024-10.444-6.106-17.746-15.309-21.997-4.788-2.212-6.712-2.415-28-2.952l-22.858-.577 9.831 6.669m-24.879-.115c-38.464 14.303-76.084 64.709-63.495 85.077 13.909 22.506 78.752-22.195 90.46-62.362 5.85-20.071-6.376-30.371-26.965-22.715" fill-rule="evenodd"/><path fill="#970d04" stroke="#970d04" d="M123 30.385c0 .212 1.237 1.19 2.75 2.175 2.247 1.462 2.508 1.494 1.428.176-1.174-1.433-.837-1.657 3-2 3.837-.343 3.677-.406-1.428-.561-3.162-.096-5.75-.002-5.75.21m29.768 1.34c1.797.222 4.497.218 6-.01 1.503-.229.032-.411-3.268-.405-3.3.005-4.529.192-2.732.415m10.982-.063c.688.278 1.813.278 2.5 0 .688-.277.125-.504-1.25-.504s-1.937.227-1.25.504m8.75 2.721c6.524 3.084 10.343 7.27 12.603 13.813 1.007 2.917 1.846 4.502 1.864 3.522.13-7.092-11.553-19.758-18.177-19.708-.71.005.96 1.073 3.71 2.373m-63.856 1.248c-2.67.82-4.674 1.672-4.453 1.893.221.222 2.59-.256 5.265-1.061 14.84-4.466 22.907-.358 24.569 12.512.688 5.332.717 5.376.844 1.243.411-13.432-10.403-19.447-26.225-14.587m24.029 1.449c1.241 1.502 7.327 5.331 7.327 4.609 0-.233-1.912-1.685-4.25-3.226-2.338-1.542-3.722-2.164-3.077-1.383M97.75 40.068C95.688 41.157 94 42.271 94 42.544c0 .446 7.899-3.246 8.917-4.167 1.15-1.041-1.853-.058-5.167 1.691m-14.076 9.037c-14.692 10.45-29.94 27.583-37.036 41.612-4.005 7.92-3.101 7.749 1.149-.217 8.079-15.146 21.107-29.854 35.423-39.99C92.331 44.051 93.677 43 92.828 43c-.315 0-4.434 2.747-9.154 6.105m56.95-4.566c-.343.893-.595 2.15-.561 2.793.035.642.495.09 1.022-1.227.527-1.318.779-2.574.56-2.793-.219-.219-.679.333-1.021 1.227M137.1 56.6c-1.218 4.191-2.034 7.799-1.814 8.019.22.22 1.396-3.028 2.614-7.219 1.218-4.191 2.034-7.799 1.814-8.019-.22-.22-1.396 3.028-2.614 7.219m50.22 3.4c0 3.575.182 5.037.403 3.25.222-1.788.222-4.712 0-6.5-.221-1.788-.403-.325-.403 3.25m-54.241-3.417c.048 1.165.285 1.402.604.605.289-.722.253-1.585-.079-1.917-.332-.332-.568.258-.525 1.312m-1 3.085c-.043.643-.338 1.993-.655 3-.547 1.741-.518 1.744.571.044.631-.983.925-2.333.655-3-.355-.875-.514-.887-.571-.044m-3.877 9.854c-1.197 2.463-1.966 4.478-1.709 4.478.677 0 4.718-8.123 4.265-8.575-.209-.21-1.36 1.634-2.556 4.097m5.369-.951c-.367 1.466-.475 2.858-.24 3.094.236.235.73-.771 1.098-2.236.367-1.466.475-2.858.24-3.094-.236-.235-.73.771-1.098 2.236m52.565 4.21c-.083 3.213-.626 5.457-1.386 5.729-.687.246-13.218 1.476-27.845 2.735-26.56 2.285-26.595 2.285-26.239.271.247-1.396.034-1.248-.693.484-.577 1.375-11.091 11.5-23.366 22.5l-22.317 20-8.278 27.5c-4.553 15.125-8.605 27.864-9.004 28.308-.912 1.018-1.403-.05-12.971-28.214-5.526-13.457-6.852-17.595-5.843-18.235.936-.594.723-.833-.751-.844-1.289-.009-2.488-1.042-3.212-2.765-.694-1.652-.954-1.884-.651-.58a136.9 136.9 0 0 1 .888 4.163c.314 1.63-1.715 27.233-2.747 34.667-.638 4.592-4.139-9.606-4.809-19.5l-.712-10.5.28 11c.324 12.725 1.371 16.816 5.817 22.725 7.158 9.51 15.012 10.717 51.703 7.944 9.075-.686 31.706-2.298 50.291-3.582 18.585-1.285 33.962-2.507 34.172-2.716.209-.21.866-6.454 1.46-13.876.593-7.422 2.45-30.328 4.127-50.902 1.676-20.574 2.862-38.349 2.635-39.5-.227-1.151-.474.284-.549 3.188m-54.565 2.79c-.367 1.466-.475 2.858-.24 3.094.236.235.73-.771 1.098-2.236.367-1.466.475-2.858.24-3.094-.236-.235-.73.771-1.098 2.236m-9.108 3.679c-1.542 2.338-2.164 3.722-1.383 3.077 1.502-1.241 5.331-7.327 4.609-7.327-.233 0-1.685 1.912-3.226 4.25M111 93.22c-4.675 5.028-11.875 11.814-16 15.079-8.158 6.458-9.284 7.454-7 6.194 5.449-3.009 23.319-19.386 29.18-26.743 4.718-5.921 2.983-4.386-6.18 5.47m-3.483 11.436-21.796 19.656 6.39 2.246c3.514 1.236 11.564 3.868 17.889 5.849 6.325 1.981 14.364 4.568 17.864 5.748 3.5 1.18 7.393 2.258 8.651 2.396 1.257.138 3.275.565 4.484.949 1.818.577 2.102.377 1.641-1.151-1.738-5.77-12.699-50.792-12.871-52.87-.113-1.363-.262-2.479-.33-2.479-.069 0-9.934 8.845-21.922 19.656m-65.876-1.446c-.338 1.26-.55 5.215-.473 8.79.142 6.5.142 6.5.827-2 .724-8.991.644-10.518-.354-6.79M38.086 114c-.031.825.381 2.175.914 3 1.181 1.828 1.181.249 0-2.5-.567-1.319-.878-1.489-.914-.5m-.716 13c0 5.775.165 8.137.367 5.25.202-2.887.202-7.612 0-10.5s-.367-.525-.367 5.25M76 120.5c-3.575 1.872-6.15 3.425-5.721 3.451 1.063.067 12.721-5.859 12.721-6.465 0-.673.235-.773-7 3.014m-31.074 2.752c2.271 2.576 7.667 4.843 11.074 4.653.825-.046-.684-.684-3.353-1.417-2.67-.733-6.045-2.381-7.5-3.661L42.5 120.5l2.426 2.752m17.574 2.354-5 1.369 4.404-.524c2.422-.288 5.122-.944 6-1.457 2.083-1.218.717-1.063-5.404.612m18.313.077c.721.289 1.584.253 1.916-.079.332-.332-.258-.568-1.312-.525-1.165.048-1.402.285-.604.604M71 127.5c-2.475.717-3.825 1.339-3 1.383.825.043 3.75-.548 6.5-1.313 2.75-.765 4.1-1.387 3-1.382-1.1.004-4.025.595-6.5 1.312m-7.187 2.183c.721.289 1.584.253 1.916-.079.332-.332-.258-.568-1.312-.525-1.165.048-1.402.285-.604.604M56 131c-1.98.634-2.084.801-.5.801 1.1 0 3.125-.361 4.5-.801 1.98-.634 2.084-.801.5-.801-1.1 0-3.125.361-4.5.801m-5.187 1.683c.721.289 1.584.253 1.916-.079.332-.332-.258-.568-1.312-.525-1.165.048-1.402.285-.604.604" fill-rule="evenodd"/></svg>